<?xml version="1.0" encoding="UTF-8" standalone="no"?>
<!-- Created with Inkscape (http://www.inkscape.org/) -->

<svg
   width="128"
   height="128"
   viewBox="0 0 33.866666 33.866666"
   version="1.1"
   id="svg5"
   xml:space="preserve"
   inkscape:version="1.2.2 (b0a8486541, 2022-12-01)"
   sodipodi:docname="ps2-memcard-symbolic.svg"
   xmlns:inkscape="http://www.inkscape.org/namespaces/inkscape"
   xmlns:sodipodi="http://sodipodi.sourceforge.net/DTD/sodipodi-0.dtd"
   xmlns="http://www.w3.org/2000/svg"
   xmlns:svg="http://www.w3.org/2000/svg"><sodipodi:namedview
     id="namedview7"
     pagecolor="#ffffff"
     bordercolor="#000000"
     borderopacity="0.25"
     inkscape:showpageshadow="2"
     inkscape:pageopacity="0.0"
     inkscape:pagecheckerboard="0"
     inkscape:deskcolor="#d1d1d1"
     inkscape:document-units="mm"
     showgrid="true"
     inkscape:zoom="5.1754899"
     inkscape:cx="105.8837"
     inkscape:cy="87.721164"
     inkscape:window-width="2560"
     inkscape:window-height="1368"
     inkscape:window-x="0"
     inkscape:window-y="0"
     inkscape:window-maximized="1"
     inkscape:current-layer="layer1"><inkscape:grid
       type="xygrid"
       id="grid354"
       empspacing="4" /></sodipodi:namedview><defs
     id="defs2" /><g
     inkscape:label="Layer 1"
     inkscape:groupmode="layer"
     id="layer1"><path
       id="path457"
       style="display:inline;opacity:0.323255;fill:#ffffff;fill-opacity:1;stroke:none;stroke-width:0.264583;stroke-dashoffset:79.54"
       d="M 6.35,2.1166667 5.2916667,3.175 V 17.991667 L 6.35,19.05 5.2916667,20.108333 6.35,21.166667 5.2916667,22.225 6.35,23.283333 5.2916667,24.341667 6.35,25.4 5.2916667,26.458333 V 31.75 H 28.575 V 26.458333 L 27.516667,25.4 28.575,24.341667 27.516667,23.283333 28.575,22.225 27.516667,21.166667 28.575,20.108333 27.516667,19.05 28.575,17.991667 V 3.175 L 27.516667,2.1166667 Z M 16.933333,3.175 21.166667,5.2916667 H 12.7 Z M 8.3705485,16.933333 H 25.496118 c 0.533031,0 0.962215,0.472017 0.962215,1.058334 V 25.4 c 0,0.586316 -0.429184,1.058333 -0.962215,1.058333 H 8.3705485 C 7.837518,26.458333 7.4083333,25.986316 7.4083333,25.4 v -7.408333 c 0,-0.586317 0.4291847,-1.058334 0.9622152,-1.058334 z"
       sodipodi:nodetypes="cccccccccccccccccccccccccccccsssssssss" /></g></svg>
